
<svg width="166px" height="200px" viewBox="0 0 166 200" version="1.1" xmlns="http://www.w3.org/2000/svg" xmlns:xlink="http://www.w3.org/1999/xlink">
    <!-- Generator: Sketch 50 (54983) - http://www.bohemiancoding.com/sketch -->
    <desc>Created with Sketch.</desc>
    <defs>
        <path d="M61.0369417,17.9663245 C25.5369417,32.9663245 12.0369417,90.4663245 21.0369417,133.966324 C30.0369417,177.466324 64.0369417,209.466324 123.536942,186.466324 C183.036942,163.466324 168.536942,99.9663245 149.036942,68.4663245 C129.536942,36.9663245 96.5369417,2.96632446 61.0369417,17.9663245 Z" id="path-1"></path>
        <filter x="-8.8%" y="-8.3%" width="123.0%" height="118.9%" filterUnits="objectBoundingBox" id="filter-2">
            <feOffset dx="4" dy="2" in="SourceAlpha" result="shadowOffsetOuter1"></feOffset>
            <feGaussianBlur stdDeviation="5" in="shadowOffsetOuter1" result="shadowBlurOuter1"></feGaussianBlur>
            <feColorMatrix values="0 0 0 0 0   0 0 0 0 0   0 0 0 0 0  0 0 0 0.162250906 0" type="matrix" in="shadowBlurOuter1"></feColorMatrix>
        </filter>
        <path d="M61.0369417,17.9663245 C25.5369417,32.9663245 12.0369417,90.4663245 21.0369417,133.966324 C30.0369417,177.466324 64.0369417,209.466324 123.536942,186.466324 C183.036942,163.466324 168.536942,99.9663245 149.036942,68.4663245 C129.536942,36.9663245 96.5369417,2.96632446 61.0369417,17.9663245 Z" id="path-3"></path>
        <filter x="-7.8%" y="-6.4%" width="115.6%" height="112.8%" filterUnits="objectBoundingBox" id="filter-4">
            <feGaussianBlur stdDeviation="8.5" in="SourceAlpha" result="shadowBlurInner1"></feGaussianBlur>
            <feOffset dx="-5" dy="6" in="shadowBlurInner1" result="shadowOffsetInner1"></feOffset>
            <feComposite in="shadowOffsetInner1" in2="SourceAlpha" operator="arithmetic" k2="-1" k3="1" result="shadowInnerInner1"></feComposite>
            <feColorMatrix values="0 0 0 0 0   0 0 0 0 0   0 0 0 0 0  0 0 0 0.107818161 0" type="matrix" in="shadowInnerInner1"></feColorMatrix>
        </filter>
        <path d="M61.0369417,17.9663245 C25.5369417,32.9663245 12.0369417,90.4663245 21.0369417,133.966324 C30.0369417,177.466324 64.0369417,209.466324 123.536942,186.466324 C183.036942,163.466324 168.536942,99.9663245 149.036942,68.4663245 C129.536942,36.9663245 96.5369417,2.96632446 61.0369417,17.9663245 Z" id="path-5"></path>
        <filter x="-20.3%" y="-16.7%" width="140.6%" height="133.4%" filterUnits="objectBoundingBox" id="filter-6">
            <feGaussianBlur stdDeviation="18.5" in="SourceAlpha" result="shadowBlurInner1"></feGaussianBlur>
            <feOffset dx="-12" dy="-23" in="shadowBlurInner1" result="shadowOffsetInner1"></feOffset>
            <feComposite in="shadowOffsetInner1" in2="SourceAlpha" operator="arithmetic" k2="-1" k3="1" result="shadowInnerInner1"></feComposite>
            <feColorMatrix values="0 0 0 0 0   0 0 0 0 0   0 0 0 0 0  0 0 0 0.107818161 0" type="matrix" in="shadowInnerInner1"></feColorMatrix>
        </filter>
        <radialGradient cx="27.7433384%" cy="47.0921966%" fx="27.7433384%" fy="47.0921966%" r="94.161331%" gradientTransform="translate(0.277433,0.470922),scale(1.000000,0.821492),rotate(89.999999),scale(1.000000,0.488728),translate(-0.277433,-0.470922)" id="radialGradient-7">
            <stop stop-color="#FFFFFF" stop-opacity="0.299903759" offset="0%"></stop>
            <stop stop-color="#FFFFFF" stop-opacity="0" offset="100%"></stop>
        </radialGradient>
    </defs>
    <g id="Nettside" stroke="none" stroke-width="1" fill="none" fill-rule="evenodd">
        <g id="Group-3" transform="translate(-9.000000, -5.000000)">
            <g id="Path" transform="translate(92.195757, 104.224073) rotate(13.000000) translate(-92.195757, -104.224073) ">
                <use fill="black" fill-opacity="1" filter="url(#filter-2)" xlink:href="#path-1"></use>
                <use fill="#DDBF6F" fill-rule="evenodd" xlink:href="#path-1"></use>
            </g>
            <g id="Path" transform="translate(92.195757, 104.224073) rotate(13.000000) translate(-92.195757, -104.224073) " fill="black" fill-opacity="1">
                <use filter="url(#filter-4)" xlink:href="#path-3"></use>
            </g>
            <g id="Path" transform="translate(92.195757, 104.224073) rotate(13.000000) translate(-92.195757, -104.224073) " fill="black" fill-opacity="1">
                <use filter="url(#filter-6)" xlink:href="#path-5"></use>
            </g>
            <path d="M61.0369417,17.9663245 C25.5369417,32.9663245 12.0369417,90.4663245 21.0369417,133.966324 C30.0369417,177.466324 64.0369417,209.466324 123.536942,186.466324 C183.036942,163.466324 168.536942,99.9663245 149.036942,68.4663245 C129.536942,36.9663245 96.5369417,2.96632446 61.0369417,17.9663245 Z" id="Path" fill="url(#radialGradient-7)" transform="translate(92.195757, 104.224073) rotate(13.000000) translate(-92.195757, -104.224073) "></path>
        </g>
    </g>
</svg>